<svg width="27" height="17" viewBox="0 0 27 17" fill="none" xmlns="http://www.w3.org/2000/svg">
<g filter="url(#filter0_d_53_1)">
<path fill-rule="evenodd" clip-rule="evenodd" d="M0.140991 2.14365C0.140991 1.12827 0.95894 0.310317 1.97432 0.310317V0.253906H17.2615V15.4565H1.97432C1.46663 15.4565 1.01535 15.259 0.676889 14.9206C0.338427 14.5821 0.140991 14.1308 0.140991 13.6231V11.1129C0.140991 10.7744 0.394837 10.4642 0.733299 10.3795C1.88971 10.0975 2.70766 9.05391 2.70766 7.86929C2.70766 6.68468 1.88971 5.64109 0.733299 5.35903C0.366632 5.27442 0.140991 4.96416 0.140991 4.6257V2.14365ZM6.07322 10.9268C6.02634 10.8799 6 10.8163 6 10.75V10.5001H7.49986V10.75C7.49986 10.8163 7.47352 10.8799 7.42664 10.9268C7.37976 10.9737 7.31618 11 7.24988 11H6.24998C6.18368 11 6.1201 10.9737 6.07322 10.9268ZM11.4995 10.75C11.4995 10.8163 11.5258 10.8799 11.5727 10.9268C11.6196 10.9737 11.6832 11 11.7495 11H12.7494C12.8157 11 12.8792 10.9737 12.9261 10.9268C12.973 10.8799 12.9993 10.8163 12.9993 10.75V10.5001H11.4995V10.75ZM12.0394 5.87948L12.4744 7.62256L12.8528 8.00028C12.9463 8.0942 12.999 8.22122 12.9993 8.35374V10.0001H6V8.35374C6.00036 8.22122 6.053 8.0942 6.14649 8.00028L6.52495 7.62256L6.96016 5.87948C6.98715 5.77127 7.04954 5.6752 7.13741 5.60653C7.22528 5.53786 7.33359 5.50055 7.44511 5.50052H11.5542C11.6658 5.50049 11.7742 5.53778 11.8621 5.60645C11.95 5.67513 12.0124 5.77123 12.0394 5.87948ZM11.5542 6.00047H7.44511L7.07015 7.50033H11.9292L11.5542 6.00047ZM7.16655 9.18696C7.22821 9.22817 7.30071 9.25016 7.37487 9.25016C7.47432 9.25016 7.56969 9.21065 7.64001 9.14033C7.71033 9.07001 7.74983 8.97464 7.74983 8.87519C7.74983 8.80103 7.72784 8.72854 7.68664 8.66687C7.64544 8.60521 7.58688 8.55715 7.51836 8.52877C7.44985 8.50039 7.37445 8.49297 7.30172 8.50743C7.22898 8.5219 7.16217 8.55761 7.10973 8.61005C7.05729 8.66249 7.02158 8.72931 7.00711 8.80204C6.99264 8.87478 7.00007 8.95017 7.02845 9.01869C7.05683 9.0872 7.10489 9.14576 7.16655 9.18696ZM11.4161 9.18696C11.4778 9.22817 11.5503 9.25016 11.6245 9.25016C11.7239 9.25016 11.8193 9.21065 11.8896 9.14033C11.9599 9.07001 11.9994 8.97464 11.9994 8.87519C11.9994 8.80103 11.9774 8.72854 11.9362 8.66687C11.895 8.60521 11.8365 8.55715 11.768 8.52877C11.6994 8.50039 11.624 8.49297 11.5513 8.50743C11.4786 8.5219 11.4118 8.55761 11.3593 8.61005C11.3069 8.66249 11.2712 8.72931 11.2567 8.80204C11.2422 8.87478 11.2497 8.95017 11.278 9.01869C11.3064 9.0872 11.3545 9.14576 11.4161 9.18696ZM8.84975 5.12554L8.84956 5.12543C8.91531 5.01125 9.00999 4.91641 9.12406 4.85045C9.23816 4.78448 9.36763 4.74974 9.49944 4.74974C9.63124 4.74974 9.76072 4.78448 9.87482 4.85045C9.98892 4.91643 10.0836 5.01131 10.1494 5.12554L10.5818 4.87556C10.4721 4.68563 10.3143 4.52792 10.1244 4.41827C9.93439 4.30862 9.71891 4.2509 9.49956 4.2509C9.28022 4.2509 9.06473 4.30862 8.87476 4.41827C8.68478 4.52792 8.52701 4.68563 8.41729 4.87556L8.84956 5.12543L8.8495 5.12554H8.84975ZM7.27789 4.35413L7.72184 4.58361C7.89004 4.25707 8.14492 3.98316 8.45853 3.79193C8.77214 3.60069 9.13236 3.49953 9.49967 3.49953C9.86699 3.49953 10.2272 3.60069 10.5408 3.79193C10.8544 3.98316 11.1093 4.25707 11.2775 4.58361L11.7215 4.35413C11.5111 3.94621 11.1925 3.60407 10.8006 3.36521C10.4087 3.12635 9.95863 3 9.49967 3C9.04072 3 8.59062 3.12635 8.19871 3.36521C7.80681 3.60407 7.48822 3.94621 7.27789 4.35413Z" fill="#AFBDD4"/>
<path fill-rule="evenodd" clip-rule="evenodd" d="M26.3436 5.35902C26.682 5.27441 26.9359 4.96415 26.9359 4.62569V2.14364C26.9359 1.12825 26.1179 0.310303 25.1025 0.310303H18.8128V15.5129H25.1025C26.1179 15.5129 26.9359 14.6949 26.9359 13.6795V11.1975C26.9359 10.8308 26.682 10.5206 26.3436 10.4641C25.159 10.1821 24.341 9.16671 24.341 7.92569C24.341 6.68466 25.159 5.64107 26.3436 5.35902Z" fill="#AFBDD4"/>
</g>
<defs>
<filter id="filter0_d_53_1" x="0.140991" y="0.253906" width="26.7949" height="16.259" filterUnits="userSpaceOnUse" color-interpolation-filters="sRGB">
<feFlood flood-opacity="0" result="BackgroundImageFix"/>
<feColorMatrix in="SourceAlpha" type="matrix" values="0 0 0 0 0 0 0 0 0 0 0 0 0 0 0 0 0 0 127 0" result="hardAlpha"/>
<feOffset dy="1"/>
<feColorMatrix type="matrix" values="0 0 0 0 0 0 0 0 0 0 0 0 0 0 0 0 0 0 0.0771626 0"/>
<feBlend mode="normal" in2="BackgroundImageFix" result="effect1_dropShadow_53_1"/>
<feBlend mode="normal" in="SourceGraphic" in2="effect1_dropShadow_53_1" result="shape"/>
</filter>
</defs>
</svg>
